<?xml version="1.0" encoding="UTF-8"?>
<!-- Generator: Adobe Illustrator 16.0.0, SVG Export Plug-In . SVG Version: 6.00 Build 0)  -->
<!DOCTYPE svg PUBLIC "-//W3C//DTD SVG 1.1//EN" "http://www.w3.org/Graphics/SVG/1.1/DTD/svg11.dtd">
<svg version="1.1" id="Layer_1" xmlns="http://www.w3.org/2000/svg" xmlns:xlink="http://www.w3.org/1999/xlink" x="0px" y="0px" width="200px" height="600px" viewBox="-202 283 200 600" xml:space="preserve">
<g>
	<path fill="#666667" d="M-10.987,306.588c-4.01-2.249-5.627-3.063-8-3.063c-2.193,0-3.252,1.124-3.252,2.859   c0,5.214,12.561,3.783,12.561,15.947c0,6.643-3.662,10.63-9.879,10.63c-3.813,0-5.607-1.637-8.389-3.478v-7.462   c4.008,3.271,5.627,4.495,8.652,4.495c2.328,0,3.25-1.226,3.25-3.27c0-5.724-12.48-3.576-12.48-16.15   c0-6.026,2.498-10.017,8.965-10.017c3.107,0,5.051,0.814,8.57,2.76v6.745L-10.987,306.588L-10.987,306.588z"/>
	<path fill="#666667" d="M-107.991,297.393c5.729,0,8.246,4.808,8.246,10.021c0,3.781-1.557,6.645-4.746,8.48   c-0.893,0.382-1.35,0.494-2.012,0.657l9.619,15.697h-6.771l-9.063-14.208v14.208h-6.115v-34.856H-107.991L-107.991,297.393z    M-112.718,311.705h2.846c1.963,0,3.846-1.022,3.846-3.986c0-2.658-1.393-3.981-4.01-3.981h-2.682V311.705z"/>
	<path fill="#666667" d="M-67.729,332.25h-6.609l-2.289-6.95h-10.842l-2.047,6.95h-6.523l10.369-34.855h6.424L-67.729,332.25z    M-82.335,305.674l-3.254,13.594h6.916L-82.335,305.674z"/>
	<path fill="#666667" d="M-59.573,332.25h-6.115v-34.855h6.115V332.25z"/>
	<path fill="#666667" d="M-31.178,332.25h-5.053L-49.1,309.866v22.384h-6.115v-34.855h5.545l12.375,21.264v-21.264h6.117V332.25z"/>
	<path fill="#666667" d="M-127.63,313.035c2.373-1.435,3.846-3.988,3.846-6.952c0-1.544-0.303-3.23-1.068-4.704   c-2.244,1.989-4.723,4.152-5.469,4.804c0.115,0.402,0.176,0.821,0.176,1.229c0,1.839-0.98,3.781-3.52,3.781h-2.004v-1.795v-5.664   v-0.845l7.303-4.784c-1.051-0.442-2.305-0.711-3.824-0.711h-9.596v34.854h10.229c8.184,0,9.902-6.234,9.902-10.221   C-121.655,317.939-123.62,314.36-127.63,313.035z M-133.419,325.81h-2.25v-8.177h3.23c2.455,0,4.256,1.328,4.256,3.883   C-128.182,324.587-129.573,325.81-133.419,325.81z"/>
	<path fill="#F18825" d="M-118.932,293.298c-0.381-0.239-4.857,2.545-7.668,4.504l-1.033,0.716l-7.195,4.831v5.354   c1.541-1.052,2.785-2.038,3.676-2.931l5.383-4.61c0,0,2.691-2.419,4.105-3.833l0.523-0.49c0.396-0.356,0.664-0.597,0.664-0.929   c0-0.02-0.002-0.037-0.002-0.057C-120.497,295.667-118.76,293.404-118.932,293.298z"/>
	<path fill="#F18825" d="M-147.153,316.05l4.379-2.975v-5.36l-3.926,2.563c0,0-3.5,2.271-4.723,3.063   c0.092-0.688,0.186-1.418,0.186-1.418c0.617-4.558,1.184-9.104,1.184-12.133c0-1.465-0.133-2.574-0.459-3.152   c-0.23-0.41-0.582-0.674-1.014-0.762c-0.574-0.118-1.242,0.083-1.883,0.568c-2.008,1.396-3.004,5.482-3.004,12.426   c0,2.245,0.107,4.798,0.316,7.643c-0.232,0.21-1.389,1.251-1.389,1.251c0.018-0.015-1.984,1.747-1.984,1.747   c-0.002,0.002-0.053,0.069-0.088,0.111c-1.854,1.639-3.021,2.558-3.467,2.729c-0.555,0.223-1.041,0.271-1.479,0.229   c2.52-1.858,4.574-5.836,4.574-8.202c0-0.271-0.025-0.521-0.084-0.745c-0.412-1.618-1.227-2.794-2.361-3.399   c-1.113-0.597-2.459-0.617-4.002-0.068l-0.602,0.244c-2.779,1.258-11.227,6.006-13.85,7.483c0.311-3.705,1.832-20.603,2.258-29.517   c0.277-5.758,0-2.188,0-3.305c0-4.188-5.26,0.002-8.172,2.913c-1.223,1.223-5.041,4.711-3.658,7.365   c1.488,2.856,3.057,1.899,3.879,6.817c1.445,8.646,0.342,17.512,0.344,18.082c-0.475,0.224-4.098,1.929-4.098,1.929   c-6.242,2.892-10.986,5.082-10.986,8.688c0,0.563,0.115,1.156,0.357,1.795c5.18,13.545,12.24,20.835,15.023,20.098   c4.035-1.074,4.199-6.379,4.447-14.4c0.123-4.001,0.27-8.533,0.885-13.636c0.324-0.204,7.109-5.253,8.371-6.061   c-0.605,1.229-0.6,2.419-0.6,3.06c0,1.599,0.229,2.91,0.553,3.588c0.547,1.145,1.029,1.992,2.275,2.559   c1.582,0.755,2.957,0.965,5.656-0.096c1.211-0.479,3.287-1.916,5.598-3.854c0.459,0.788,2.459,4.23,2.459,4.23l1.832,3.123   c0.828,1.473,2.141,1.888,3.604,1.141c1.111-0.557,1.846-1.044,2.063-1.76c0.045-0.15,0.064-0.297,0.064-0.443   c0-0.479-0.213-0.938-0.42-1.304c-2.104-3.746-2.244-7.011-2.244-9.493c0-0.16,0-0.316,0-0.472   C-150.975,318.693-147.153,316.05-147.153,316.05z M-188.368,341.706c-1.658-1.342-2.443-2.476-3.654-5.409   c-2.051-4.958,0.789-6.492,5.936-9.412C-186.7,332.168-187.128,342.95-188.368,341.706z M-167.87,320.512   c-0.072-1.854-0.459-4.253,1.934-5.521c0.934-0.513,1.479-0.188,1.793,0.13C-163.512,315.752-164.925,318.677-167.87,320.512z"/>
</g>
<g>
	<path fill="#666667" d="M-99.223,495.788c-2.15-1.205-3.016-1.646-4.289-1.646c-1.178,0-1.744,0.604-1.744,1.535   c0,2.795,6.736,2.027,6.736,8.551c0,3.563-1.965,5.701-5.299,5.701c-2.045,0-3.008-0.879-4.5-1.862v-4.005   c2.15,1.759,3.018,2.412,4.641,2.412c1.25,0,1.744-0.653,1.744-1.752c0-3.066-6.691-1.918-6.691-8.662   c0-3.229,1.338-5.368,4.807-5.368c1.666,0,2.709,0.438,4.596,1.479L-99.223,495.788L-99.223,495.788z"/>
	<path fill="#666667" d="M-151.243,490.857c3.07,0,4.42,2.573,4.42,5.368c0,2.027-0.832,3.564-2.545,4.552   c-0.479,0.205-0.723,0.267-1.078,0.354l5.158,8.418h-3.631l-4.859-7.619v7.619h-3.281v-18.689L-151.243,490.857L-151.243,490.857z    M-153.778,498.532h1.525c1.053,0,2.063-0.55,2.063-2.143c0-1.426-0.748-2.137-2.15-2.137h-1.438V498.532z"/>
	<path fill="#666667" d="M-129.653,509.549h-3.543l-1.229-3.727h-5.814l-1.098,3.727h-3.498l5.561-18.688h3.445L-129.653,509.549z    M-137.485,495.297l-1.746,7.291h3.709L-137.485,495.297z"/>
	<path fill="#666667" d="M-125.278,509.549h-3.279V490.86h3.279V509.549z"/>
	<path fill="#666667" d="M-110.052,509.549h-2.711l-6.9-12.004v12.004h-3.279V490.86h2.973l6.639,11.397V490.86h3.279   L-110.052,509.549L-110.052,509.549z"/>
	<path fill="#666667" d="M-161.774,499.245c1.271-0.771,2.063-2.14,2.063-3.729c0-0.828-0.162-1.729-0.572-2.521   c-1.203,1.063-2.533,2.227-2.934,2.576c0.061,0.215,0.094,0.438,0.094,0.654c0,0.986-0.525,2.027-1.887,2.027h-1.074v-0.961v-3.039   v-0.451l3.916-2.563c-0.564-0.238-1.236-0.382-2.053-0.382h-5.145v18.688h5.484c4.389,0,5.311-3.344,5.311-5.479   C-158.571,501.875-159.624,499.956-161.774,499.245z M-164.88,506.095h-1.207v-4.385h1.732c1.316,0,2.281,0.711,2.281,2.082   C-162.073,505.439-162.817,506.095-164.88,506.095z"/>
	<path fill="#F18825" d="M-157.112,488.661c-0.205-0.129-2.604,1.364-4.111,2.414l-0.555,0.385l-3.857,2.592v2.869   c0.826-0.563,1.494-1.092,1.973-1.57l2.887-2.473c0,0,1.443-1.297,2.201-2.057l0.281-0.266c0.211-0.188,0.354-0.316,0.354-0.498   c0-0.01,0-0.02,0-0.025C-157.95,489.929-157.018,488.717-157.112,488.661z"/>
	<path fill="#F18825" d="M-172.245,500.862l2.348-1.6v-2.875l-2.105,1.375c0,0-1.875,1.22-2.533,1.646   c0.051-0.371,0.1-0.763,0.1-0.763c0.332-2.442,0.635-4.888,0.635-6.509c0-0.786-0.07-1.381-0.244-1.688   c-0.125-0.22-0.313-0.361-0.545-0.408c-0.309-0.063-0.668,0.043-1.01,0.305c-1.078,0.748-1.611,2.941-1.611,6.664   c0,1.203,0.059,2.572,0.17,4.101c-0.125,0.11-0.744,0.673-0.744,0.673c0.01-0.009-1.064,0.936-1.064,0.936   c-0.002,0.002-0.027,0.037-0.047,0.063c-0.994,0.877-1.621,1.37-1.859,1.465c-0.297,0.116-0.559,0.143-0.793,0.121   c1.352-0.996,2.455-3.132,2.455-4.398c0-0.145-0.016-0.276-0.045-0.396c-0.221-0.868-0.658-1.5-1.268-1.825   c-0.596-0.316-1.318-0.33-2.146-0.037l-0.322,0.131c-1.49,0.676-6.02,3.226-7.428,4.019c0.168-1.987,0.984-11.052,1.211-15.828   c0.148-3.088,0-1.174,0-1.772c0-2.244-2.82,0.002-4.383,1.563c-0.654,0.653-2.703,2.524-1.961,3.95   c0.797,1.531,1.641,1.021,2.08,3.654c0.775,4.64,0.184,9.396,0.186,9.697c-0.256,0.121-2.197,1.035-2.197,1.035   c-3.35,1.547-5.893,2.725-5.893,4.655c0,0.304,0.063,0.618,0.191,0.963c2.777,7.265,6.564,11.172,8.057,10.776   c2.164-0.573,2.25-3.422,2.385-7.725c0.066-2.146,0.145-4.576,0.475-7.313c0.174-0.107,3.813-2.814,4.488-3.25   c-0.324,0.658-0.322,1.298-0.322,1.643c0,0.854,0.125,1.563,0.297,1.926c0.293,0.61,0.553,1.067,1.221,1.369   c0.85,0.403,1.586,0.518,3.033-0.052c0.65-0.257,1.764-1.026,3-2.063c0.248,0.422,1.32,2.271,1.32,2.271l0.98,1.675   c0.445,0.788,1.148,1.012,1.934,0.609c0.596-0.301,0.988-0.563,1.105-0.941c0.025-0.082,0.035-0.16,0.035-0.238   c0-0.258-0.115-0.502-0.225-0.699c-1.129-2.008-1.205-3.76-1.205-5.092c0-0.084,0-0.168,0-0.252   C-174.296,502.28-172.245,500.862-172.245,500.862z M-194.348,514.62c-0.889-0.72-1.311-1.328-1.961-2.9   c-1.1-2.657,0.424-3.479,3.184-5.047C-193.454,509.506-193.682,515.288-194.348,514.62z M-183.356,503.254   c-0.039-0.996-0.246-2.279,1.039-2.961c0.5-0.273,0.791-0.101,0.959,0.067C-181.018,500.702-181.776,502.271-183.356,503.254z"/>
</g>
<g>
	<path fill="#136BA2" d="M-118.86,693.394c-1.737-0.977-2.436-1.328-3.464-1.328c-0.95,0-1.408,0.486-1.408,1.24   c0,2.257,5.439,1.638,5.439,6.903c0,2.878-1.586,4.604-4.279,4.604c-1.65,0-2.427-0.708-3.632-1.505v-3.23   c1.736,1.417,2.437,1.947,3.747,1.947c1.01,0,1.409-0.53,1.409-1.417c0-2.479-5.404-1.549-5.404-6.993   c0-2.611,1.081-4.339,3.88-4.339c1.346,0,2.188,0.354,3.711,1.195L-118.86,693.394L-118.86,693.394z"/>
	<path fill="#136BA2" d="M-160.868,689.412c2.48,0,3.57,2.08,3.57,4.338c0,1.64-0.673,2.878-2.054,3.676   c-0.385,0.162-0.585,0.214-0.871,0.283l4.166,6.8h-2.933l-3.924-6.153v6.153h-2.649v-15.097H-160.868z M-162.915,695.608h1.231   c0.85,0,1.665-0.441,1.665-1.726c0-1.15-0.602-1.728-1.735-1.728h-1.161V695.608z"/>
	<path fill="#136BA2" d="M-143.432,704.506h-2.862l-0.992-3.01h-4.696l-0.885,3.01h-2.827l4.493-15.096h2.782L-143.432,704.506z    M-149.757,692.997l-1.41,5.89h2.995L-149.757,692.997z"/>
	<path fill="#136BA2" d="M-139.901,704.506h-2.649V689.41h2.649V704.506z"/>
	<path fill="#136BA2" d="M-127.604,704.506h-2.188l-5.572-9.692v9.692h-2.648V689.41h2.399l5.36,9.207v-9.207h2.649V704.506z"/>
	<path fill="#136BA2" d="M-169.373,696.186c1.028-0.621,1.666-1.729,1.666-3.011c0-0.669-0.131-1.398-0.463-2.038   c-0.971,0.86-2.044,1.799-2.368,2.081c0.05,0.175,0.076,0.354,0.076,0.53c0,0.797-0.425,1.64-1.524,1.64h-0.868v-0.777v-2.453   v-0.364l3.162-2.071c-0.455-0.192-0.999-0.31-1.656-0.31h-4.155v15.096h4.429c3.544,0,4.289-2.699,4.289-4.428   C-166.786,698.31-167.637,696.76-169.373,696.186z M-171.88,701.719h-0.975v-3.542h1.399c1.063,0,1.843,0.573,1.843,1.683   C-169.612,701.188-170.214,701.719-171.88,701.719z"/>
	<path fill="#FA930D" d="M-165.607,687.638c-0.166-0.104-2.104,1.103-3.321,1.95l-0.448,0.312l-3.116,2.091v2.318   c0.668-0.454,1.206-0.882,1.592-1.27l2.332-1.998c0,0,1.166-1.048,1.778-1.657l0.228-0.214c0.17-0.152,0.286-0.259,0.286-0.4   c0-0.008-0.001-0.019-0.001-0.024C-166.284,688.664-165.533,687.685-165.607,687.638z"/>
	<path fill="#FA930D" d="M-177.829,697.491l1.897-1.288v-2.319l-1.701,1.106c0,0-1.515,0.984-2.045,1.328   c0.04-0.299,0.081-0.615,0.081-0.615c0.266-1.974,0.512-3.941,0.512-5.253c0-0.634-0.057-1.115-0.198-1.366   c-0.101-0.176-0.253-0.291-0.439-0.33c-0.249-0.051-0.538,0.036-0.816,0.247c-0.869,0.604-1.301,2.376-1.301,5.383   c0,0.972,0.048,2.076,0.137,3.31c-0.101,0.092-0.601,0.542-0.601,0.542c0.007-0.006-0.859,0.758-0.859,0.758   s-0.024,0.028-0.038,0.048c-0.803,0.709-1.309,1.107-1.501,1.185c-0.24,0.094-0.45,0.112-0.641,0.099   c1.091-0.806,1.981-2.528,1.981-3.553c0-0.117-0.012-0.229-0.036-0.322c-0.179-0.701-0.531-1.211-1.023-1.474   c-0.482-0.258-1.064-0.27-1.732-0.029l-0.261,0.104c-1.204,0.546-4.862,2.604-5.997,3.241c0.133-1.604,0.792-8.922,0.978-12.781   c0.118-2.492,0-0.947,0-1.432c0-1.813-2.279,0-3.54,1.263c-0.529,0.527-2.183,2.039-1.584,3.189   c0.644,1.237,1.323,0.823,1.678,2.953c0.627,3.744,0.148,7.584,0.149,7.831c-0.206,0.095-1.773,0.834-1.773,0.834   c-2.704,1.251-4.758,2.201-4.758,3.762c0,0.243,0.05,0.501,0.155,0.776c2.244,5.867,5.3,9.021,6.505,8.705   c1.748-0.467,1.819-2.764,1.927-6.238c0.053-1.732,0.116-3.695,0.383-5.903c0.14-0.089,3.078-2.274,3.624-2.626   c-0.262,0.533-0.259,1.049-0.259,1.326c0,0.69,0.1,1.26,0.24,1.555c0.236,0.493,0.445,0.861,0.985,1.104   c0.685,0.327,1.28,0.42,2.448-0.04c0.525-0.207,1.425-0.83,2.424-1.669c0.199,0.342,1.065,1.833,1.065,1.833l0.794,1.354   c0.358,0.639,0.926,0.816,1.56,0.492c0.481-0.237,0.799-0.45,0.894-0.761c0.02-0.064,0.028-0.129,0.028-0.192   c0-0.209-0.093-0.404-0.182-0.563c-0.913-1.622-0.973-3.035-0.973-4.11c0-0.067,0-0.138,0-0.204   C-179.485,698.637-177.829,697.491-177.829,697.491z M-195.678,708.602c-0.717-0.581-1.057-1.071-1.582-2.342   c-0.888-2.148,0.342-2.813,2.571-4.076C-194.955,704.471-195.14,709.141-195.678,708.602z M-186.8,699.424   c-0.032-0.808-0.199-1.844,0.838-2.395c0.404-0.22,0.639-0.08,0.775,0.059C-184.913,697.361-185.525,698.631-186.8,699.424z"/>
</g>
<style xmlns="http://www.w3.org/1999/xhtml" charset="utf-8" type="text/css">/* See license.txt for terms of usage */
/** reset styling **/
.firebugResetStyles {
    z-index: 2147483646 !important;
    top: 0 !important;
    left: 0 !important;
    display: block !important;
    border: 0 none !important;
    margin: 0 !important;
    padding: 0 !important;
    outline: 0 !important;
    min-width: 0 !important;
    max-width: none !important;
    min-height: 0 !important;
    max-height: none !important;
    position: fixed !important;
    transform: rotate(0deg) !important;
    transform-origin: 50% 50% !important;
    border-radius: 0 !important;
    box-shadow: none !important;
    background: transparent none !important;
    pointer-events: none !important;
    white-space: normal !important;
}

.firebugBlockBackgroundColor {
    background-color: transparent !important;
}

.firebugResetStyles:before, .firebugResetStyles:after {
    content: "" !important;
}
/**actual styling to be modified by firebug theme**/
.firebugCanvas {
    display: none !important;
}

/* * * * * * * * * * * * * * * * * * * * * * * * * * * * * * * * * * * * * * * * * * * * * * * * */
.firebugLayoutBox {
    width: auto !important;
    position: static !important;
}

.firebugLayoutBoxOffset {
    opacity: 0.8 !important;
    position: fixed !important;
}

.firebugLayoutLine {
    opacity: 0.4 !important;
    background-color: #000000 !important;
}

.firebugLayoutLineLeft, .firebugLayoutLineRight {
    width: 1px !important;
    height: 100% !important;
}

.firebugLayoutLineTop, .firebugLayoutLineBottom {
    width: 100% !important;
    height: 1px !important;
}

.firebugLayoutLineTop {
    margin-top: -1px !important;
    border-top: 1px solid #999999 !important;
}

.firebugLayoutLineRight {
    border-right: 1px solid #999999 !important;
}

.firebugLayoutLineBottom {
    border-bottom: 1px solid #999999 !important;
}

.firebugLayoutLineLeft {
    margin-left: -1px !important;
    border-left: 1px solid #999999 !important;
}

/* * * * * * * * * * * * * * * * * * * * * * * * * * * * * * * * * * * * * * * * * * * * * * * * */
.firebugLayoutBoxParent {
    border-top: 0 none !important;
    border-right: 1px dashed #E00 !important;
    border-bottom: 1px dashed #E00 !important;
    border-left: 0 none !important;
    position: fixed !important;
    width: auto !important;
}

.firebugRuler{
    position: absolute !important;
}

.firebugRulerH {
    top: -15px !important;
    left: 0 !important;
    width: 100% !important;
    height: 14px !important;
    background: url("data:image/png,%89PNG%0D%0A%1A%0A%00%00%00%0DIHDR%00%00%13%88%00%00%00%0E%08%02%00%00%00L%25a%0A%00%00%00%04gAMA%00%00%D6%D8%D4OX2%00%00%00%19tEXtSoftware%00Adobe%20ImageReadyq%C9e%3C%00%00%04%F8IDATx%DA%EC%DD%D1n%E2%3A%00E%D1%80%F8%FF%EF%E2%AF2%95%D0D4%0E%C1%14%B0%8Fa-%E9%3E%CC%9C%87n%B9%81%A6W0%1C%A6i%9A%E7y%0As8%1CT%A9R%A5J%95*U%AAT%A9R%A5J%95*U%AAT%A9R%A5J%95*U%AAT%A9R%A5J%95*U%AAT%A9R%A5J%95*U%AAT%A9R%A5J%95*U%AAT%A9R%A5J%95*U%AATE9%FE%FCw%3E%9F%AF%2B%2F%BA%97%FDT%1D~K(%5C%9D%D5%EA%1B%5C%86%B5%A9%BDU%B5y%80%ED%AB*%03%FAV9%AB%E1%CEj%E7%82%EF%FB%18%BC%AEJ8%AB%FA'%D2%BEU9%D7U%ECc0%E1%A2r%5DynwVi%CFW%7F%BB%17%7Dy%EACU%CD%0E%F0%FA%3BX%FEbV%FEM%9B%2B%AD%BE%AA%E5%95v%AB%AA%E3E5%DCu%15rV9%07%B5%7F%B5w%FCm%BA%BE%AA%FBY%3D%14%F0%EE%C7%60%0EU%AAT%A9R%A5J%95*U%AAT%A9R%A5J%95*U%AAT%A9R%A5J%95*U%AAT%A9R%A5J%95*U%AAT%A9R%A5JU%88%D3%F5%1F%AE%DF%3B%1B%F2%3E%DAUCNa%F92%D02%AC%7Dm%F9%3A%D4%F2%8B6%AE*%BF%5C%C2Ym~9g5%D0Y%95%17%7C%C8c%B0%7C%18%26%9CU%CD%13i%F7%AA%90%B3Z%7D%95%B4%C7%60%E6E%B5%BC%05%B4%FBY%95U%9E%DB%FD%1C%FC%E0%9F%83%7F%BE%17%7DkjMU%E3%03%AC%7CWj%DF%83%9An%BCG%AE%F1%95%96yQ%0Dq%5Dy%00%3Et%B5'%FC6%5DS%95pV%95%01%81%FF'%07%00%00%00%00%00%00%00%00%00%F8x%C7%F0%BE%9COp%5D%C9%7C%AD%E7%E6%EBV%FB%1E%E0(%07%E5%AC%C6%3A%ABi%9C%8F%C6%0E9%AB%C0'%D2%8E%9F%F99%D0E%B5%99%14%F5%0D%CD%7F%24%C6%DEH%B8%E9rV%DFs%DB%D0%F7%00k%FE%1D%84%84%83J%B8%E3%BA%FB%EF%20%84%1C%D7%AD%B0%8E%D7U%C8Y%05%1E%D4t%EF%AD%95Q%BF8w%BF%E9%0A%BF%EB%03%00%00%00%00%00%00%00%00%00%B8vJ%8E%BB%F5%B1u%8Cx%80%E1o%5E%CA9%AB%CB%CB%8E%03%DF%1D%B7T%25%9C%D5(%EFJM8%AB%CC'%D2%B2*%A4s%E7c6%FB%3E%FA%A2%1E%80~%0E%3E%DA%10x%5D%95Uig%15u%15%ED%7C%14%B6%87%A1%3B%FCo8%A8%D8o%D3%ADO%01%EDx%83%1A~%1B%9FpP%A3%DC%C6'%9C%95gK%00%00%00%00%00%00%00%00%00%20%D9%C9%11%D0%C0%40%AF%3F%EE%EE%92%94%D6%16X%B5%BCMH%15%2F%BF%D4%A7%C87%F1%8E%F2%81%AE%AAvzr%DA2%ABV%17%7C%E63%83%E7I%DC%C6%0Bs%1B%EF6%1E%00%00%00%00%00%00%00%00%00%80cr%9CW%FF%7F%C6%01%0E%F1%CE%A5%84%B3%CA%BC%E0%CB%AA%84%CE%F9%BF)%EC%13%08WU%AE%AB%B1%AE%2BO%EC%8E%CBYe%FE%8CN%ABr%5Dy%60~%CFA%0D%F4%AE%D4%BE%C75%CA%EDVB%EA(%B7%F1%09g%E5%D9%12%00%00%00%00%00%00%00%00%00H%F6%EB%13S%E7y%5E%5E%FB%98%F0%22%D1%B2'%A7%F0%92%B1%BC%24z3%AC%7Dm%60%D5%92%B4%7CEUO%5E%F0%AA*%3BU%B9%AE%3E%A0j%94%07%A0%C7%A0%AB%FD%B5%3F%A0%F7%03T%3Dy%D7%F7%D6%D4%C0%AAU%D2%E6%DFt%3F%A8%CC%AA%F2%86%B9%D7%F5%1F%18%E6%01%F8%CC%D5%9E%F0%F3z%88%AA%90%EF%20%00%00%00%00%00%00%00%00%00%C0%A6%D3%EA%CFi%AFb%2C%7BB%0A%2B%C3%1A%D7%06V%D5%07%A8r%5D%3D%D9%A6%CAu%F5%25%CF%A2%99%97zNX%60%95%AB%5DUZ%D5%FBR%03%AB%1C%D4k%9F%3F%BB%5C%FF%81a%AE%AB'%7F%F3%EA%FE%F3z%94%AA%D8%DF%5B%01%00%00%00%00%00%00%00%00%00%8E%FB%F3%F2%B1%1B%8DWU%AAT%A9R%A5J%95*U%AAT%A9R%A5J%95*U%AAT%A9R%A5J%95*U%AAT%A9R%A5J%95*U%AAT%A9R%A5J%95*U%AAT%A9R%A5J%95*U%AAT%A9R%A5J%95*UiU%C7%BBe%E7%F3%B9%CB%AAJ%95*U%AAT%A9R%A5J%95*U%AAT%A9R%A5J%95*U%AAT%A9R%A5J%95*U%AAT%A9R%A5J%95*U%AAT%A9R%A5J%95*U%AAT%A9R%A5J%95*U%AAT%A9R%A5*%AAj%FD%C6%D4%5Eo%90%B5Z%ADV%AB%D5j%B5Z%ADV%AB%D5j%B5Z%ADV%AB%D5j%B5Z%ADV%AB%D5j%B5Z%ADV%AB%D5j%B5Z%ADV%AB%D5j%B5Z%ADV%AB%D5j%B5%86%AF%1B%9F%98%DA%EBm%BBV%AB%D5j%B5Z%ADV%AB%D5j%B5Z%ADV%AB%D5j%B5Z%ADV%AB%D5j%B5Z%ADV%AB%D5j%B5Z%ADV%AB%D5j%B5Z%ADV%AB%D5j%B5Z%AD%D6%E4%F58%01%00%00%00%00%00%00%00%00%00%00%00%00%00%40%85%7F%02%0C%008%C2%D0H%16j%8FX%00%00%00%00IEND%AEB%60%82") repeat-x !important;
    border-top: 1px solid #BBBBBB !important;
    border-right: 1px dashed #BBBBBB !important;
    border-bottom: 1px solid #000000 !important;
}

.firebugRulerV {
    top: 0 !important;
    left: -15px !important;
    width: 14px !important;
    height: 100% !important;
    background: url("data:image/png,%89PNG%0D%0A%1A%0A%00%00%00%0DIHDR%00%00%00%0E%00%00%13%88%08%02%00%00%00%0E%F5%CB%10%00%00%00%04gAMA%00%00%D6%D8%D4OX2%00%00%00%19tEXtSoftware%00Adobe%20ImageReadyq%C9e%3C%00%00%06~IDATx%DA%EC%DD%D1v%A20%14%40Qt%F1%FF%FF%E4%97%D9%07%3BT%19%92%DC%40(%90%EEy%9A5%CB%B6%E8%F6%9Ac%A4%CC0%84%FF%DC%9E%CF%E7%E3%F1%88%DE4%F8%5D%C7%9F%2F%BA%DD%5E%7FI%7D%F18%DDn%BA%C5%FB%DF%97%BFk%F2%10%FF%FD%B4%F2M%A7%FB%FD%FD%B3%22%07p%8F%3F%AE%E3%F4S%8A%8F%40%EEq%9D%BE8D%F0%0EY%A1Uq%B7%EA%1F%81%88V%E8X%3F%B4%CEy%B7h%D1%A2E%EBohU%FC%D9%AF2fO%8BBeD%BE%F7X%0C%97%A4%D6b7%2Ck%A5%12%E3%9B%60v%B7r%C7%1AI%8C%BD%2B%23r%00c0%B2v%9B%AD%CA%26%0C%1Ek%05A%FD%93%D0%2B%A1u%8B%16-%95q%5Ce%DCSO%8E%E4M%23%8B%F7%C2%FE%40%BB%BD%8C%FC%8A%B5V%EBu%40%F9%3B%A72%FA%AE%8C%D4%01%CC%B5%DA%13%9CB%AB%E2I%18%24%B0n%A9%0CZ*Ce%9C%A22%8E%D8NJ%1E%EB%FF%8F%AE%CAP%19*%C3%BAEKe%AC%D1%AAX%8C*%DEH%8F%C5W%A1e%AD%D4%B7%5C%5B%19%C5%DB%0D%EF%9F%19%1D%7B%5E%86%BD%0C%95%A12%AC%5B*%83%96%CAP%19%F62T%86%CAP%19*%83%96%CA%B8Xe%BC%FE)T%19%A1%17xg%7F%DA%CBP%19*%C3%BA%A52T%86%CAP%19%F62T%86%CA%B0n%A9%0CZ%1DV%C6%3D%F3%FCH%DE%B4%B8~%7F%5CZc%F1%D6%1F%AF%84%F9%0F6%E6%EBVt9%0E~%BEr%AF%23%B0%97%A12T%86%CAP%19%B4T%86%CA%B8Re%D8%CBP%19*%C3%BA%A52huX%19%AE%CA%E5%BC%0C%7B%19*CeX%B7h%A9%0C%95%E1%BC%0C%7B%19*CeX%B7T%06%AD%CB%5E%95%2B%BF.%8F%C5%97%D5%E4%7B%EE%82%D6%FB%CF-%9C%FD%B9%CF%3By%7B%19%F62T%86%CA%B0n%D1R%19*%A3%D3%CA%B0%97%A12T%86uKe%D0%EA%B02*%3F1%99%5DB%2B%A4%B5%F8%3A%7C%BA%2B%8Co%7D%5C%EDe%A8%0C%95a%DDR%19%B4T%C66%82fA%B2%ED%DA%9FC%FC%17GZ%06%C9%E1%B3%E5%2C%1A%9FoiB%EB%96%CA%A0%D5qe4%7B%7D%FD%85%F7%5B%ED_%E0s%07%F0k%951%ECr%0D%B5C%D7-g%D1%A8%0C%EB%96%CA%A0%A52T%C6)*%C3%5E%86%CAP%19%D6-%95A%EB*%95q%F8%BB%E3%F9%AB%F6%E21%ACZ%B7%22%B7%9B%3F%02%85%CB%A2%5B%B7%BA%5E%B7%9C%97%E1%BC%0C%EB%16-%95%A12z%AC%0C%BFc%A22T%86uKe%D0%EA%B02V%DD%AD%8A%2B%8CWhe%5E%AF%CF%F5%3B%26%CE%CBh%5C%19%CE%CB%B0%F3%A4%095%A1%CAP%19*Ce%A8%0C%3BO*Ce%A8%0C%95%A12%3A%AD%8C%0A%82%7B%F0v%1F%2FD%A9%5B%9F%EE%EA%26%AF%03%CA%DF9%7B%19*Ce%A8%0C%95%A12T%86%CA%B8Ze%D8%CBP%19*Ce%A8%0C%95%D1ae%EC%F7%89I%E1%B4%D7M%D7P%8BjU%5C%BB%3E%F2%20%D8%CBP%19*Ce%A8%0C%95%A12T%C6%D5*%C3%5E%86%CAP%19*Ce%B4O%07%7B%F0W%7Bw%1C%7C%1A%8C%B3%3B%D1%EE%AA%5C%D6-%EBV%83%80%5E%D0%CA%10%5CU%2BD%E07YU%86%CAP%19*%E3%9A%95%91%D9%A0%C8%AD%5B%EDv%9E%82%FFKOee%E4%8FUe%A8%0C%95%A12T%C6%1F%A9%8C%C8%3D%5B%A5%15%FD%14%22r%E7B%9F%17l%F8%BF%ED%EAf%2B%7F%CF%ECe%D8%CBP%19*Ce%A8%0C%95%E1%93~%7B%19%F62T%86%CAP%19*Ce%A8%0C%E7%13%DA%CBP%19*Ce%A8%0CZf%8B%16-Z%B4h%D1R%19f%8B%16-Z%B4h%D1R%19%B4%CC%16-Z%B4h%D1R%19%B4%CC%16-Z%B4h%D1%A2%A52%CC%16-Z%B4h%D1%A2%A52h%99-Z%B4h%D1%A2%A52h%99-Z%B4h%D1%A2EKe%98-Z%B4h%D1%A2EKe%D02%5B%B4h%D1%A2EKe%D02%5B%B4h%D1%A2E%8B%96%CA0%5B%B4h%D1%A2E%8B%96%CA%A0e%B6h%D1%A2E%8B%96%CA%A0e%B6h%D1%A2E%8B%16-%95a%B6h%D1%A2E%8B%16-%95A%CBl%D1%A2E%8B%16-%95A%CBl%D1%A2E%8B%16-Z*%C3l%D1%A2E%8B%16-Z*%83%96%D9%A2E%8B%16-Z*%83%96%D9%A2E%8B%16-Z%B4T%86%D9%A2E%8B%16-Z%B4T%06-%B3E%8B%16-Z%B4T%06-%B3E%8B%16-Z%B4h%A9%0C%B3E%8B%16-Z%B4h%A9%0CZf%8B%16-Z%B4h%A9%0CZf%8B%16-Z%B4h%D1R%19f%8B%16-Z%B4h%D1R%19%B4%CC%16-Z%B4h%D1R%19%B4%CC%16-Z%B4h%D1%A2%A52%CC%16-Z%B4h%D1%A2%A52h%99-Z%B4h%D1%A2%A52h%99-Z%B4h%D1%A2EKe%98-Z%B4h%D1%A2EKe%D02%5B%B4h%D1%A2EKe%D02%5B%B4h%D1%A2E%8B%96%CA0%5B%B4h%D1%A2E%8B%96%CA%A0e%B6h%D1%A2E%8B%96%CA%A0e%B6h%D1%A2E%8B%16-%95a%B6h%D1%A2E%8B%16-%95A%CBl%D1%A2E%8B%16-%95A%CBl%D1%A2E%8B%16-Z*%C3l%D1%A2E%8B%16-Z*%83%96%D9%A2E%8B%16-Z*%83%96%D9%A2E%8B%16-Z%B4T%86%D9%A2E%8B%16-Z%B4T%06-%B3E%8B%16-Z%B4T%06-%B3E%8B%16-Z%B4h%A9%0C%B3E%8B%16-Z%B4h%A9%0CZf%8B%16-Z%B4h%A9%0CZf%8B%16-Z%B4h%D1R%19f%8B%16-Z%B4h%D1R%19%B4%CC%16-Z%B4h%D1R%19%B4%CC%16-Z%B4h%D1%A2%A52%CC%16-Z%B4h%D1%A2%A52h%99-Z%B4h%D1%A2%A52h%99-Z%B4h%D1%A2EKe%98-Z%B4h%D1%A2EKe%D02%5B%B4h%D1%A2EKe%D02%5B%B4h%D1%A2E%8B%96%CA0%5B%B4h%D1%A2E%8B%96%CA%A0e%B6h%D1%A2E%8B%96%CA%A0e%B6h%D1%A2E%8B%16-%95a%B6h%D1%A2E%8B%16-%95A%CBl%D1%A2E%8B%16-%95A%CBl%D1%A2E%8B%16-Z*%C3l%D1%A2E%8B%16-Z*%83%96%D9%A2E%8B%16-Z*%83%96%D9%A2E%8B%16-Z%B4T%86%D9%A2E%8B%16-Z%B4T%06-%B3E%8B%16-Z%B4%AE%A4%F5%25%C0%00%DE%BF%5C'%0F%DA%B8q%00%00%00%00IEND%AEB%60%82") repeat-y !important;
    border-left: 1px solid #BBBBBB !important;
    border-right: 1px solid #000000 !important;
    border-bottom: 1px dashed #BBBBBB !important;
}

.overflowRulerX &gt; .firebugRulerV {
    left: 0 !important;
}

.overflowRulerY &gt; .firebugRulerH {
    top: 0 !important;
}

/* * * * * * * * * * * * * * * * * * * * * * * * * * * * * * * * * * * * * * * * * * * * * * * * */
.fbProxyElement {
    position: fixed !important;
    pointer-events: auto !important;
}
</style></svg>